<svg width="24" height="24" fill="currentColor" aria-label="Notifications" class="x1lliihq x1n2onr6 x5n08af"><path d="M16.792 3.904A4.99 4.99 0 0 1 21.5 9.122c0 3.072-2.652 4.959-5.197 7.222-2.512 2.243-3.865 3.469-4.303 3.752-.477-.309-2.143-1.823-4.303-3.752C5.141 14.072 2.5 12.167 2.5 9.122a4.99 4.99 0 0 1 4.708-5.218 4.21 4.21 0 0 1 3.675 1.941c.84 1.175.98 1.763 1.12 1.763s.278-.588 1.11-1.766a4.17 4.17 0 0 1 3.679-1.938m0-2a6.04 6.04 0 0 0-4.797 2.127 6.05 6.05 0 0 0-4.787-2.127A6.985 6.985 0 0 0 .5 9.122c0 3.61 2.55 5.827 5.015 7.97q.426.368.853.747l1.027.918a45 45 0 0 0 3.518 3.018 2 2 0 0 0 2.174 0 45 45 0 0 0 3.626-3.115l.922-.824q.441-.39.885-.774c2.334-2.025 4.98-4.32 4.98-7.94a6.985 6.985 0 0 0-6.708-7.218"/></svg>